<svg width="209" height="136" viewBox="0 0 209 136" fill="none" xmlns="http://www.w3.org/2000/svg">
<path d="M67.6268 54.0684C78.2761 50.0544 91.4882 49.4558 102.065 52.3035C120.401 57.24 119.882 74.7663 116.157 90.198C112.633 104.797 92.1743 114.068 79.9207 103.935C66.0588 92.4721 62.8592 71.0276 67.6268 54.0684C67.9078 53.0688 68.2165 52.0848 68.5523 51.1193C77.7652 24.6321 100.172 5.10268 128.591 2.33004C139.543 1.26161 147.659 2.76332 157.486 7.18528C163.635 9.95243 166.759 13.6923 172.525 16.8958C181.713 22 186.511 30.8918 194.315 36.1983C195.369 36.915 200.308 40.3035 202.464 42.593C203.888 44.104 204.1 45.1364 201.183 44.6061C194.837 43.4522 189.734 42.593 183.183 42.593H185.789H202.464C200.308 40.3035 195.369 36.915 194.315 36.1983C186.511 30.8918 181.713 22 172.525 16.8958C166.759 13.6923 163.635 9.95243 157.486 7.18528C147.659 2.76332 139.543 1.26161 128.591 2.33004C100.172 5.10268 77.7652 24.6321 68.5523 51.1193C68.2165 52.0848 67.9078 53.0688 67.6268 54.0684Z" fill="#1E1E1E"/>
<path d="M2 134.25C2 96.9 32.5818 72.7856 62.1576 56.5666C73.4364 50.3814 89.5851 48.9434 102.065 52.3035C120.401 57.24 119.882 74.7663 116.157 90.198C112.633 104.797 92.1743 114.068 79.9207 103.935C65.2418 91.7965 62.519 68.465 68.5523 51.1193C77.7652 24.6321 100.172 5.10268 128.591 2.33004C139.543 1.26161 147.659 2.76332 157.486 7.18528C163.635 9.95243 166.759 13.6923 172.525 16.8958C181.713 22 186.511 30.8919 194.315 36.1983C196.064 37.388 208.519 45.9399 201.183 44.6061C194.837 43.4522 189.734 42.593 183.183 42.593C172.048 42.593 178.165 42.593 185.789 42.593C191.67 42.593 197.552 42.593 203.433 42.593C209.814 42.593 204.499 30.6227 204.499 26.6062C204.499 24.1976 202.367 8.30221 202.367 17.4879C202.367 23.7247 202.367 29.9615 202.367 36.1983" stroke="#414141" stroke-width="3" stroke-linecap="round"/>
</svg>
