<svg width="156" height="59" viewBox="0 0 156 59" fill="none" xmlns="http://www.w3.org/2000/svg">
<path d="M74.485 20.605V23.195H63.88V31.42H72.49V34.01H63.88V45H60.695V20.605H74.485ZM81.5167 19.1V45H78.3317V19.1H81.5167ZM103.465 25.82L91.915 54.03H88.625L92.405 44.79L84.67 25.82H88.205L94.225 41.36L100.175 25.82H103.465ZM131.412 20.78V45H128.227V26.94L120.177 45H117.937L109.852 26.905V45H106.667V20.78H110.097L119.057 40.8L128.017 20.78H131.412ZM154.313 34.675C154.313 35.2817 154.278 35.9233 154.208 36.6H138.878C138.995 38.49 139.636 39.9717 140.803 41.045C141.993 42.095 143.428 42.62 145.108 42.62C146.485 42.62 147.628 42.305 148.538 41.675C149.471 41.0217 150.125 40.1583 150.498 39.085H153.928C153.415 40.9283 152.388 42.4333 150.848 43.6C149.308 44.7433 147.395 45.315 145.108 45.315C143.288 45.315 141.655 44.9067 140.208 44.09C138.785 43.2733 137.665 42.1183 136.848 40.625C136.031 39.1083 135.623 37.3583 135.623 35.375C135.623 33.3917 136.02 31.6533 136.813 30.16C137.606 28.6667 138.715 27.5233 140.138 26.73C141.585 25.9133 143.241 25.505 145.108 25.505C146.928 25.505 148.538 25.9017 149.938 26.695C151.338 27.4883 152.411 28.585 153.158 29.985C153.928 31.3617 154.313 32.925 154.313 34.675ZM151.023 34.01C151.023 32.7967 150.755 31.7583 150.218 30.895C149.681 30.0083 148.946 29.3433 148.013 28.9C147.103 28.4333 146.088 28.2 144.968 28.2C143.358 28.2 141.981 28.7133 140.838 29.74C139.718 30.7667 139.076 32.19 138.913 34.01H151.023Z" fill="#E7DFDF"/>
<ellipse cx="21" cy="29" rx="21" ry="20" fill="#D9D9D9"/>
<path d="M23.485 14.605V17.195H12.88V25.42H21.49V28.01H12.88V39H9.695V14.605H23.485Z" fill="#4B4A50"/>
<path d="M33.032 28.084V44H30.939V32.132L25.649 44H24.177L18.864 32.109V44H16.771V28.084H19.025L24.913 41.24L30.801 28.084H33.032Z" fill="#4B4A50"/>
</svg>
